<svg width="212" height="211" viewBox="0 0 212 211" fill="none" xmlns="http://www.w3.org/2000/svg">
<path d="M118.19 0H200.25C208 0 211 3 211 10.75C211 48.75 211 86.7667 211 124.8C211 132.51 207.73 135.8 200 135.8C149.14 135.8 98.2767 135.8 47.41 135.8C41.5686 135.789 35.8555 137.513 30.9952 140.753C26.1349 143.993 22.3463 148.604 20.11 154C18.4067 158.295 17.7748 162.94 18.2688 167.534C18.7628 172.128 20.3679 176.533 22.9454 180.368C25.5229 184.202 28.9953 187.352 33.0626 189.544C37.1299 191.736 41.6698 192.905 46.29 192.95C63.86 193.07 81.44 192.95 99.02 192.95C132.96 192.95 166.903 192.95 200.85 192.95C204.37 192.95 207.35 193.82 209.45 196.8C210.259 197.943 210.778 199.265 210.964 200.653C211.15 202.041 210.998 203.453 210.519 204.769C210.04 206.085 209.25 207.266 208.216 208.21C207.182 209.154 205.934 209.833 204.58 210.19C203.091 210.55 201.562 210.722 200.03 210.7C146.417 210.7 92.81 210.7 39.21 210.7C16.21 210.7 0.01 194.48 0.01 171.59C0.00333333 127.31 0 83.04 0 38.78C0 16.21 16.19 0 38.77 0C65.2367 0 91.71 0 118.19 0ZM114.12 100.33C132.79 100.33 151.46 100.33 170.12 100.33C172.35 100.33 173.17 99.82 173.12 97.45C172.95 91.87 173.12 86.28 173.06 80.69C173 75.1 173.69 75.97 168.37 75.97C141.577 75.97 114.783 75.97 87.99 75.97C85.45 75.97 84.43 75.4 84.69 72.74C84.915 70.4488 84.915 68.1412 84.69 65.85C84.38 62.85 85.38 62.02 88.45 62.03C115.57 62.16 142.69 62.03 169.82 62.16C172.34 62.16 173.19 61.6 173.13 58.94C172.95 50.94 172.98 42.94 173.13 34.94C173.13 32.51 172.53 31.78 170.02 31.79C138.84 31.88 107.65 31.79 76.46 31.87C63.64 31.87 55.23 40.32 55.17 53.09C55.1 67.55 55.23 82 55.09 96.46C55.09 99.33 55.64 100.33 58.8 100.3C77.22 100.25 95.67 100.34 114.12 100.34V100.33Z" fill="#0CB06C"/>
<path d="M49.41 166.77C49.41 163.38 49.41 159.99 49.41 156.6C49.48 153.04 50.89 151.52 54.35 151.49C62.0233 151.43 69.69 151.43 77.35 151.49C80.61 151.49 82.27 153.05 82.35 156.31C82.47 163.52 82.52 170.74 82.35 177.95C82.27 181.95 79.03 183.74 75.46 181.88C73.22 180.73 71.04 179.47 68.91 178.13C68.0057 177.502 66.931 177.165 65.83 177.165C64.729 177.165 63.6543 177.502 62.75 178.13C60.6 179.43 58.45 180.74 56.21 181.88C52.56 183.73 49.53 181.97 49.41 177.88C49.31 174.16 49.41 170.44 49.41 166.73V166.77Z" fill="#0CB06C"/>
</svg>
